Coordinates
version=1
nRows=7
nColumns=40
inDegrees=yes

Units are S.I. units (second, meters, Newtons, ...)
If the header above contains a line with 'inDegrees', this indicates whether rotational values are in degrees (yes) or radians (no).

endheader
time	pelvis_tilt	pelvis_list	pelvis_rotation	pelvis_tx	pelvis_ty	pelvis_tz	hip_flexion_r	hip_adduction_r	hip_rotation_r	knee_angle_r	knee_angle_r_beta	ankle_angle_r	subtalar_angle_r	mtp_angle_r	hip_flexion_l	hip_adduction_l	hip_rotation_l	knee_angle_l	knee_angle_l_beta	ankle_angle_l	subtalar_angle_l	mtp_angle_l	lumbar_extension	lumbar_bending	lumbar_rotation	arm_flex_r	arm_add_r	arm_rot_r	elbow_flex_r	pro_sup_r	wrist_flex_r	wrist_dev_r	arm_flex_l	arm_add_l	arm_rot_l	elbow_flex_l	pro_sup_l	wrist_flex_l	wrist_dev_l
      0.29000000	    -17.90217633	     -8.82419376	     15.62149759	     -1.55790260	      0.96189905	      0.32883383	     69.55762504	     -8.97011679	     -9.31311680	     71.04556472	      1.23997902	      2.27174119	      0.00000000	      0.00000000	    -12.82316154	    -12.97544607	      8.61240818	     17.40460590	      0.30376768	    -28.71830030	      0.00000000	      0.00000000	     -8.98258669	     17.01146846	    -22.22065399	    -65.08987706	    -17.46530731	    -33.66482437	     92.03391461	     89.60268485	      0.00000000	      0.00000000	     39.08908511	    -26.52167032	     -8.95752575	    138.04875032	     34.18356015	      0.00000000	      0.00000000
      0.29500000	    -17.79144653	     -8.43575112	     15.62283695	     -1.52700163	      0.96389127	      0.32749648	     68.90546021	     -9.23450314	     -8.96065238	     66.61226110	      1.16260328	      2.18650934	      0.00000000	      0.00000000	    -13.84179551	    -12.49029507	      9.64770745	     18.11655568	      0.31619355	    -29.32752209	      0.00000000	      0.00000000	     -8.99099319	     16.93561865	    -22.65774849	    -65.44262804	    -17.07505872	    -34.75369545	     92.22986080	     89.60201780	      0.00000000	      0.00000000	     38.32948269	    -27.28216493	     -9.19376113	    139.65650094	     34.29013533	      0.00000000	      0.00000000
      0.30000000	    -17.67277639	     -7.95392977	     15.68634475	     -1.49624869	      0.96574092	      0.32624314	     68.07854827	     -9.57989548	     -8.63270972	     62.05929717	      1.08313907	      2.08226493	      0.00000000	      0.00000000	    -14.68840125	    -11.89876963	     10.90087275	     19.29781396	      0.33681039	    -29.29598149	      0.00000000	      0.00000000	     -9.04778100	     16.74627796	    -23.12758974	    -65.64045527	    -16.65494503	    -35.78165824	     92.39901332	     89.59915207	      0.00000000	      0.00000000	     37.35795974	    -28.12987345	     -9.30289404	    141.20561996	     34.39463769	      0.00000000	      0.00000000
      0.30500000	    -17.53364727	     -7.39354567	     15.77176755	     -1.46559512	      0.96742264	      0.32513337	     67.07592320	     -9.95967865	     -8.34636821	     57.40821385	      1.00196235	      1.95328468	      0.00000000	      0.00000000	    -15.40695184	    -11.21845659	     12.30296080	     20.90735930	      0.36490226	    -28.71002454	      0.00000000	      0.00000000	     -9.16722907	     16.45819748	    -23.57797964	    -65.70846681	    -16.21354092	    -36.74613481	     92.55347761	     89.59659127	      0.00000000	      0.00000000	     36.16277362	    -29.05016815	     -9.28173433	    142.66213359	     34.49649432	      0.00000000	      0.00000000
      0.31000000	    -17.36071824	     -6.77402704	     15.83429871	     -1.43498700	      0.96891201	      0.32423283	     65.89961341	    -10.31916102	     -8.11374403	     52.68551398	      0.91953569	      1.77956178	      0.00000000	      0.00000000	    -16.03857453	    -10.46885723	     13.74983620	     22.89356309	      0.39956805	    -27.69266434	      0.00000000	      0.00000000	     -9.36424792	     16.09013505	    -23.95663313	    -65.66956042	    -15.76725806	    -37.64051975	     92.70216212	     89.59259044	      0.00000000	      0.00000000	     34.73511042	    -30.02814167	     -9.13537960	    143.99258081	     34.59884173	      0.00000000	      0.00000000
      0.31500000	    -17.14261715	     -6.11759724	     15.83075931	     -1.40437387	      0.97018610	      0.32360405	     64.55768367	    -10.60356968	     -7.93720708	     47.92522163	      0.83645291	      1.52943411	      0.00000000	      0.00000000	    -16.61340584	     -9.67152952	     15.11493067	     25.20171734	      0.43985294	    -26.38798357	      0.00000000	      0.00000000	     -9.65013910	     15.66295592	    -24.21658354	    -65.54430347	    -15.33538303	    -38.45549761	     92.85394014	     89.58832794	      0.00000000	      0.00000000	     33.07302222	    -31.04697162	     -8.87445492	    145.16325241	     34.70524081	      0.00000000	      0.00000000
      0.32000000	    -16.87214901	     -5.44706956	     15.72713726	     -1.37371891	      0.97122598	      0.32328975	     63.06598858	    -10.76900247	     -7.80931771	     43.17172234	      0.75348870	      1.16241111	      0.00000000	      0.00000000	    -17.14491745	     -8.84946219	     16.27055792	     27.78144208	      0.48487764	    -24.94215291	      0.00000000	      0.00000000	    -10.02938887	     15.19742461	    -24.32511358	    -65.34648157	    -14.94067440	    -39.17909441	     93.01345303	     89.58461582	      0.00000000	      0.00000000	     31.18218193	    -32.08778103	     -8.52198477	    146.12007556	     35.13705544	      0.00000000	      0.00000000
